<svg width="512" height="512" viewBox="0 0 512 512" fill="none" xmlns="http://www.w3.org/2000/svg">
  <circle cx="256" cy="256" r="250" fill="#E6E6E6"/>
  <g transform="translate(145, 120) scale(0.9)">
      <path d="M170.8 116.6C163.6 81.3 190.4 51.5 214.2 38C202.9 24.5 178.6 15 158.4 15C108.9 15 88.5 45 61.3 45C33.6 45 15.6 17.5 15.6 17.5C15.6 17.5 -38.4 96.5 16.6 179.5C43.6 220 74.4 220 86.6 220C110.1 220 115.6 205.5 144.1 205.5C171.6 205.5 179.1 220 203.4 220C229.4 220 248.6 189.5 260.6 172C216.6 150.5 206.6 96 235.6 77.5C216.1 48 181.6 42.5 170.8 116.6Z" fill="#A2AAAD" stroke="#555" stroke-width="2"/>
      <path d="M187.6 37C198.8 23.5 204.6 4 202.6 0C190.6 1 176.6 9 168.1 19.5C160.6 28.5 153.6 44 156.1 59.5C168.6 60.5 180.1 50 187.6 37Z" fill="#A2AAAD" stroke="#555" stroke-width="2"/>
  </g>
</svg>
